<svg width="20" height="11" viewBox="0 0 20 11" fill="none" xmlns="http://www.w3.org/2000/svg">
<path fill-rule="evenodd" clip-rule="evenodd" d="M0.468876 0.469364C0.538544 0.399519 0.621308 0.344104 0.712426 0.306295C0.803543 0.268485 0.901225 0.249023 0.999876 0.249023C1.09853 0.249023 1.19621 0.268485 1.28733 0.306295C1.37844 0.344104 1.46121 0.399519 1.53088 0.469364L9.99988 8.93987L18.4689 0.469364C18.5386 0.399632 18.6214 0.344317 18.7125 0.306579C18.8036 0.26884 18.9013 0.249416 18.9999 0.249416C19.0985 0.249416 19.1961 0.26884 19.2873 0.306579C19.3784 0.344317 19.4611 0.399632 19.5309 0.469364C19.6006 0.539096 19.6559 0.621879 19.6937 0.712988C19.7314 0.804098 19.7508 0.901748 19.7508 1.00036C19.7508 1.09898 19.7314 1.19663 19.6937 1.28774C19.6559 1.37885 19.6006 1.46163 19.5309 1.53136L10.5309 10.5314C10.4612 10.6012 10.3784 10.6566 10.2873 10.6944C10.1962 10.7322 10.0985 10.7517 9.99988 10.7517C9.90122 10.7517 9.80354 10.7322 9.71243 10.6944C9.62131 10.6566 9.53854 10.6012 9.46888 10.5314L0.468876 1.53136C0.399031 1.4617 0.343617 1.37893 0.305807 1.28781C0.267997 1.1967 0.248535 1.09901 0.248535 1.00036C0.248535 0.901713 0.267997 0.804031 0.305807 0.712913C0.343617 0.621796 0.399031 0.539032 0.468876 0.469364Z" fill="#084298"/>
</svg>
