<svg width="46" height="41" viewBox="0 0 46 41" fill="none" xmlns="http://www.w3.org/2000/svg">
<g clip-path="url(#clip0_2026_810)">
<path fill-rule="evenodd" clip-rule="evenodd" d="M23 10C22.0054 10 21.0516 10.3951 20.3483 11.0983C19.6451 11.8016 19.25 12.7554 19.25 13.75V14.5H26.75V13.75C26.75 12.7554 26.3549 11.8016 25.6517 11.0983C24.9484 10.3951 23.9946 10 23 10ZM28.25 14.5V13.75C28.25 12.3576 27.6969 11.0223 26.7123 10.0377C25.7277 9.05312 24.3924 8.5 23 8.5C21.6076 8.5 20.2723 9.05312 19.2877 10.0377C18.3031 11.0223 17.75 12.3576 17.75 13.75V14.5H12.5V29.5C12.5 30.2956 12.8161 31.0587 13.3787 31.6213C13.9413 32.1839 14.7044 32.5 15.5 32.5H30.5C31.2956 32.5 32.0587 32.1839 32.6213 31.6213C33.1839 31.0587 33.5 30.2956 33.5 29.5V14.5H28.25ZM14 16V29.5C14 29.8978 14.158 30.2794 14.4393 30.5607C14.7206 30.842 15.1022 31 15.5 31H30.5C30.8978 31 31.2794 30.842 31.5607 30.5607C31.842 30.2794 32 29.8978 32 29.5V16H14Z" fill="#084298"/>
</g>
<defs>
<clipPath id="clip0_2026_810">
<rect width="24" height="24" fill="white" transform="translate(11 8.5)"/>
</clipPath>
</defs>
</svg>
