<svg width="808" height="400" viewBox="0 0 808 400" fill="none" xmlns="http://www.w3.org/2000/svg">
<g clip-path="url(#clip0_2309_2002)">
<path d="M474.478 39.7348C474.478 39.7348 369.072 5.55597 280.075 33.938C191.078 62.32 159.454 133.374 131.263 189.994C103.071 246.613 141.967 311.05 223.379 346.89C304.79 382.731 345.866 323.139 450.288 331.719C554.711 340.3 585.302 376.476 662.931 345.106C740.56 313.736 734.126 220.384 649.016 143.231C563.905 66.078 474.478 39.7348 474.478 39.7348Z" fill="#6EA8FE"/>
<path opacity="0.7" d="M474.478 39.7348C474.478 39.7348 369.072 5.55597 280.075 33.938C191.078 62.32 159.454 133.374 131.263 189.994C103.071 246.613 141.967 311.05 223.379 346.89C304.79 382.731 345.866 323.139 450.288 331.719C554.711 340.3 585.302 376.476 662.931 345.106C740.56 313.736 734.126 220.384 649.016 143.231C563.905 66.078 474.478 39.7348 474.478 39.7348Z" fill="white"/>
<path d="M589.336 257.746C586.35 256.214 583.886 253.83 582.255 250.898C580.624 247.965 579.899 244.614 580.173 241.27C580.446 237.925 581.705 234.737 583.79 232.108C585.876 229.479 588.694 227.527 591.889 226.5C595.083 225.473 598.511 225.416 601.738 226.337C604.965 227.258 607.846 229.115 610.018 231.673C612.189 234.232 613.553 237.377 613.937 240.71C614.321 244.044 613.708 247.417 612.175 250.402C611.158 252.385 609.761 254.147 608.062 255.59C606.364 257.032 604.398 258.125 602.277 258.808C600.156 259.49 597.921 259.747 595.701 259.565C593.48 259.382 591.317 258.764 589.336 257.746Z" fill="#263238"/>
<path d="M605.627 233.547L613.856 245.094C614.186 242.85 614.058 240.563 613.48 238.37L605.627 233.547Z" fill="#6EA8FE"/>
<path d="M588.373 228.116L607.927 255.7C609.551 254.351 610.906 252.707 611.92 250.856L595.518 225.771C592.991 226.008 590.549 226.809 588.373 228.116Z" fill="#6EA8FE"/>
<path d="M596.459 259.593L587.965 247.427L592.389 258.952C593.715 259.328 595.081 259.543 596.459 259.593Z" fill="#6EA8FE"/>
<path d="M603.359 258.398L583.938 231.932C583.75 232.164 583.573 232.418 583.396 232.662L597.464 259.615C599.486 259.561 601.482 259.149 603.359 258.398Z" fill="#6EA8FE"/>
<path d="M520.62 375.822C515.697 378.066 510.218 378.801 504.877 377.933C499.537 377.064 494.573 374.632 490.615 370.943C486.656 367.254 483.88 362.474 482.637 357.208C481.395 351.942 481.742 346.425 483.634 341.356C485.526 336.287 488.879 331.892 493.269 328.728C497.658 325.564 502.887 323.772 508.295 323.58C513.702 323.387 519.045 324.802 523.649 327.646C528.252 330.49 531.909 334.634 534.157 339.556C535.653 342.826 536.488 346.358 536.617 349.951C536.746 353.544 536.165 357.127 534.908 360.496C533.65 363.864 531.741 366.951 529.29 369.581C526.838 372.211 523.892 374.332 520.62 375.822Z" fill="#263238"/>
<mask id="mask0_2309_2002" style="mask-type:luminance" maskUnits="userSpaceOnUse" x="481" y="323" width="56" height="56">
<path d="M520.62 375.822C515.697 378.066 510.218 378.801 504.877 377.933C499.537 377.064 494.573 374.632 490.615 370.943C486.656 367.254 483.88 362.474 482.637 357.208C481.395 351.942 481.742 346.425 483.634 341.356C485.526 336.287 488.879 331.892 493.269 328.728C497.658 325.564 502.887 323.772 508.295 323.58C513.702 323.387 519.045 324.802 523.649 327.646C528.252 330.49 531.909 334.634 534.157 339.556C535.653 342.826 536.488 346.358 536.617 349.951C536.746 353.544 536.165 357.127 534.908 360.496C533.65 363.864 531.741 366.951 529.29 369.581C526.838 372.211 523.892 374.332 520.62 375.822Z" fill="white"/>
</mask>
<g mask="url(#mask0_2309_2002)">
<path d="M533.914 362.76L515.245 333.451L536.447 353.823C536.502 353.259 536.546 352.717 536.568 352.12L511.451 323.651C509.303 323.473 507.142 323.555 505.014 323.895L510.057 331.913L501.718 324.614L508.354 336.625L494.938 327.622C494.607 327.832 494.275 328.042 493.954 328.263L518.85 355.913L499.097 340.883L506.12 351.943L495.89 344.864L522.677 374.793C525.937 372.971 528.787 370.498 531.049 367.526L525.597 358.424L532.365 365.635C532.941 364.71 533.458 363.749 533.914 362.76Z" fill="#6EA8FE"/>
<path d="M517.313 377.082L495.912 352.396L505.424 367.084L481.977 348.702C481.4 355.702 483.538 362.656 487.948 368.123C492.359 373.59 498.703 377.15 505.667 378.066L497.217 370.557L510.335 378.299C512.703 378.191 515.048 377.782 517.313 377.082Z" fill="#6EA8FE"/>
<path d="M519.437 325.565L531.437 339.501L529.004 334.181L532.886 337.167C529.825 331.906 525.09 327.821 519.437 325.565Z" fill="#6EA8FE"/>
<path d="M491.532 347.121L485.051 338.163C483.72 340.699 482.787 343.426 482.286 346.247L491.532 347.121Z" fill="#6EA8FE"/>
</g>
<path d="M549.896 332.743C547.905 328.385 539.079 327.777 527.356 330.443C528.1 331.097 528.806 331.795 529.468 332.533C538.228 330.52 544.477 330.697 545.771 333.506C548.049 338.494 533.837 349.886 514.017 358.944C494.198 368.002 476.303 371.32 474.013 366.332C472.841 363.766 476.059 359.497 482.153 354.719C482.014 353.748 481.929 352.769 481.899 351.788C473.394 358.424 468.87 364.883 470.74 368.954C473.892 375.855 494.176 373.378 516.086 363.346C537.995 353.315 553.048 339.645 549.896 332.743Z" fill="#263238"/>
<path d="M229.246 171.908C244.169 171.908 256.266 159.811 256.266 144.889C256.266 129.966 244.169 117.869 229.246 117.869C214.324 117.869 202.227 129.966 202.227 144.889C202.227 159.811 214.324 171.908 229.246 171.908Z" fill="#6EA8FE"/>
<path d="M235.617 124.903C237.43 123.24 239.523 121.911 241.799 120.977C239.606 119.818 237.26 118.972 234.831 118.466C232.327 120.136 229.947 121.984 227.709 123.996C218.042 132.778 220.675 131.904 206.628 137.169C205.332 137.648 204.085 138.247 202.901 138.96C202.457 140.894 202.231 142.871 202.227 144.855C202.229 148.265 202.879 151.642 204.14 154.809C209.161 153.283 215.841 150.806 218.927 147.72C224.192 142.478 225.077 134.57 235.617 124.903Z" fill="#263238"/>
<path d="M209.615 163.436C211.66 165.607 214.048 167.426 216.683 168.823C221.715 165.305 224.06 161.567 231.226 158.316C237.52 155.451 247.905 154.821 254.386 154.743C255.619 151.612 256.253 148.276 256.255 144.911C256.255 144.446 256.255 143.993 256.189 143.528C248.534 144.124 241.009 145.85 233.859 148.649C223.639 152.708 218.684 159.952 209.615 163.436Z" fill="#263238"/>
<path d="M236.491 135.443C241.269 137.832 248.657 136.549 254.353 134.957C253.26 132.208 251.724 129.656 249.807 127.403C242.198 128.83 229.877 132.137 236.491 135.443Z" fill="#263238"/>
<path d="M275.028 234.182H316.977V245.958H291.087V260.071H312.597L310.748 271.653H291.087V288.296H318.339V300.073H275.028V234.182Z" fill="#263238"/>
<path d="M326.068 234.182C326.652 234.182 327.82 234.182 329.572 234.182C331.324 234.117 333.271 234.084 335.412 234.084C337.553 234.084 339.63 234.084 341.641 234.084C343.652 234.019 345.21 233.987 346.313 233.987C354.618 233.987 360.847 235.577 365 238.756C369.152 241.935 371.229 246.64 371.229 252.869C371.229 257.021 370.223 260.46 368.211 263.185C366.2 265.846 363.475 267.922 360.036 269.414C361.982 270.517 363.702 271.977 365.194 273.794C366.687 275.611 368.114 277.817 369.477 280.412C370.839 282.943 372.202 285.863 373.565 289.172C374.992 292.481 376.549 296.115 378.236 300.073H361.009C358.933 295.531 357.181 291.54 355.753 288.101C354.326 284.598 352.996 281.678 351.763 279.342C350.53 276.941 349.297 275.157 348.065 273.989C346.897 272.756 345.469 272.14 343.782 272.14H342.128V300.073H326.068V234.182ZM342.128 262.115H346.215C348.486 262.115 350.4 261.433 351.958 260.071C353.58 258.643 354.391 256.437 354.391 253.453C354.391 252.22 354.229 251.084 353.904 250.046C353.645 248.943 353.191 248.002 352.542 247.224C351.893 246.38 350.984 245.731 349.816 245.277C348.713 244.758 347.351 244.498 345.729 244.498H342.128V262.115Z" fill="#263238"/>
<path d="M384.332 234.182C384.916 234.182 386.084 234.182 387.836 234.182C389.588 234.117 391.534 234.084 393.676 234.084C395.817 234.084 397.893 234.084 399.905 234.084C401.916 234.019 403.473 233.987 404.576 233.987C412.882 233.987 419.111 235.577 423.263 238.756C427.416 241.935 429.492 246.64 429.492 252.869C429.492 257.021 428.487 260.46 426.475 263.185C424.464 265.846 421.739 267.922 418.3 269.414C420.246 270.517 421.966 271.977 423.458 273.794C424.95 275.611 426.378 277.817 427.74 280.412C429.103 282.943 430.466 285.863 431.828 289.172C433.256 292.481 434.813 296.115 436.5 300.073H419.273C417.197 295.531 415.445 291.54 414.017 288.101C412.59 284.598 411.26 281.678 410.027 279.342C408.794 276.941 407.561 275.157 406.328 273.989C405.16 272.756 403.733 272.14 402.046 272.14H400.391V300.073H384.332V234.182ZM400.391 262.115H404.479C406.75 262.115 408.664 261.433 410.221 260.071C411.844 258.643 412.655 256.437 412.655 253.453C412.655 252.22 412.492 251.084 412.168 250.046C411.908 248.943 411.454 248.002 410.805 247.224C410.157 246.38 409.248 245.731 408.08 245.277C406.977 244.758 405.615 244.498 403.992 244.498H400.391V262.115Z" fill="#263238"/>
<path d="M469.017 233.306C474.143 233.306 478.556 234.084 482.254 235.642C485.952 237.199 489.002 239.405 491.403 242.26C493.804 245.115 495.555 248.619 496.659 252.771C497.826 256.859 498.41 261.466 498.41 266.592C498.41 271.653 497.762 276.292 496.464 280.51C495.231 284.662 493.349 288.231 490.819 291.216C488.288 294.201 485.109 296.536 481.281 298.223C477.452 299.846 472.943 300.657 467.752 300.657C462.626 300.657 458.182 299.943 454.418 298.515C450.72 297.023 447.67 294.882 445.269 292.092C442.869 289.237 441.084 285.798 439.916 281.775C438.813 277.752 438.262 273.145 438.262 267.954C438.262 262.893 438.878 258.254 440.111 254.037C441.409 249.754 443.323 246.088 445.853 243.038C448.384 239.924 451.563 237.523 455.391 235.836C459.285 234.149 463.827 233.306 469.017 233.306ZM467.655 244.693C463.437 244.693 460.355 246.672 458.409 250.63C456.527 254.523 455.586 259.941 455.586 266.884C455.586 270.193 455.781 273.21 456.17 275.935C456.624 278.66 457.338 281.029 458.311 283.04C459.349 284.987 460.745 286.512 462.496 287.615C464.248 288.718 466.454 289.269 469.115 289.269C473.332 289.269 476.382 287.388 478.264 283.624C480.145 279.861 481.086 274.508 481.086 267.565C481.086 264.256 480.859 261.206 480.405 258.416C480.015 255.626 479.302 253.225 478.264 251.214C477.29 249.138 475.928 247.548 474.176 246.445C472.424 245.277 470.25 244.693 467.655 244.693Z" fill="#263238"/>
<path d="M508.178 234.182C508.762 234.182 509.93 234.182 511.682 234.182C513.434 234.117 515.38 234.084 517.522 234.084C519.663 234.084 521.739 234.084 523.751 234.084C525.762 234.019 527.319 233.987 528.422 233.987C536.728 233.987 542.957 235.577 547.109 238.756C551.262 241.935 553.338 246.64 553.338 252.869C553.338 257.021 552.333 260.46 550.321 263.185C548.31 265.846 545.585 267.922 542.146 269.414C544.092 270.517 545.812 271.977 547.304 273.794C548.796 275.611 550.224 277.817 551.586 280.412C552.949 282.943 554.312 285.863 555.674 289.172C557.102 292.481 558.659 296.115 560.346 300.073H543.119C541.043 295.531 539.291 291.54 537.863 288.101C536.436 284.598 535.106 281.678 533.873 279.342C532.64 276.941 531.407 275.157 530.174 273.989C529.006 272.756 527.579 272.14 525.892 272.14H524.237V300.073H508.178V234.182ZM524.237 262.115H528.325C530.596 262.115 532.51 261.433 534.067 260.071C535.69 258.643 536.501 256.437 536.501 253.453C536.501 252.22 536.338 251.084 536.014 250.046C535.754 248.943 535.3 248.002 534.651 247.224C534.003 246.38 533.094 245.731 531.926 245.277C530.823 244.758 529.461 244.498 527.838 244.498H524.237V262.115Z" fill="#263238"/>
<path d="M490.316 57.6265C489.775 56.7636 489.599 55.7216 489.824 54.7286C490.05 53.7357 490.661 52.8727 491.522 52.3288L497.793 48.3583C498.221 48.087 498.698 47.903 499.198 47.8168C499.697 47.7306 500.209 47.7439 500.703 47.8559C501.197 47.9679 501.665 48.1765 502.078 48.4695C502.492 48.7626 502.843 49.1345 503.112 49.5638C503.384 49.9919 503.568 50.4694 503.654 50.9689C503.74 51.4683 503.727 51.9799 503.615 52.4742C503.503 52.9684 503.294 53.4357 503.001 53.8492C502.708 54.2627 502.336 54.6142 501.907 54.8836L495.647 58.8321C495.218 59.1036 494.74 59.2878 494.239 59.3741C493.739 59.4605 493.227 59.4473 492.731 59.3353C492.236 59.2233 491.768 59.0147 491.353 58.7215C490.939 58.4283 490.586 58.0562 490.316 57.6265Z" fill="white" stroke="#263238" stroke-width="1.31778" stroke-linecap="round" stroke-linejoin="round"/>
<path d="M486.91 84.7234C483.945 80.4916 480.257 76.8151 476.016 73.8625C470.464 70.5477 464.717 67.5708 458.807 64.9481L455.235 45.0402C458.657 41.7562 461.726 38.1235 464.392 34.2014C467.622 28.9921 466.604 25.4971 464.536 21.8916C462.468 18.286 459.603 20.6197 459.172 22.2676C458.855 24.0028 458.663 25.7584 458.597 27.5211C458.597 27.5211 456.672 14.2491 455.555 11.2297C454.438 8.21036 450.18 11.1191 450.556 12.1256C450.556 12.1256 449.273 8.35414 446.63 8.3099C443.987 8.26566 443.235 12.7339 443.235 12.7339C443.235 12.7339 439.839 11.1634 437.937 13.1321C436.034 15.1007 436.941 20.0335 436.941 20.0335C436.941 20.0335 433.911 21.1395 433.446 25.4418C432.982 29.7442 433.358 37.276 434.552 39.3443C435.166 40.3258 435.702 41.3538 436.156 42.4189C434.652 60.3804 434.707 59.1969 434.265 66.3638C433.955 71.4072 437.262 83.1308 442.007 88.0082C446.752 92.8857 463.729 101.501 463.729 101.501C463.729 101.501 481.458 96.9337 486.91 84.7234Z" fill="white"/>
<mask id="mask1_2309_2002" style="mask-type:luminance" maskUnits="userSpaceOnUse" x="433" y="8" width="54" height="94">
<path d="M486.91 84.7234C483.945 80.4916 480.257 76.8151 476.016 73.8625C470.464 70.5477 464.717 67.5708 458.807 64.9481L455.235 45.0402C458.657 41.7562 461.726 38.1235 464.392 34.2014C467.622 28.9921 466.604 25.4971 464.536 21.8916C462.468 18.286 459.603 20.6197 459.172 22.2676C458.855 24.0028 458.663 25.7584 458.597 27.5211C458.597 27.5211 456.672 14.2491 455.555 11.2297C454.438 8.21036 450.18 11.1191 450.556 12.1256C450.556 12.1256 449.273 8.35414 446.63 8.3099C443.987 8.26566 443.235 12.7339 443.235 12.7339C443.235 12.7339 439.839 11.1634 437.937 13.1321C436.034 15.1007 436.941 20.0335 436.941 20.0335C436.941 20.0335 433.911 21.1395 433.446 25.4418C432.982 29.7442 433.358 37.276 434.552 39.3443C435.166 40.3258 435.702 41.3538 436.156 42.4189C434.652 60.3804 434.707 59.1969 434.265 66.3638C433.955 71.4072 437.262 83.1308 442.007 88.0082C446.752 92.8857 463.729 101.501 463.729 101.501C463.729 101.501 481.458 96.9337 486.91 84.7234Z" fill="white"/>
</mask>
<g mask="url(#mask1_2309_2002)">
<path d="M463.795 101.524C463.795 101.524 481.491 96.9342 486.91 84.724C486.91 84.724 486.556 84.2042 485.926 83.3747L481.325 79.5368C474.793 80.0847 468.302 81.0488 461.893 82.4235C452.182 84.6355 444.628 79.9018 441.752 69.1515C438.877 58.4012 436.222 42.4858 436.222 42.4858C434.718 60.4473 434.773 59.2639 434.331 66.4307C434.021 71.4741 437.328 83.1977 442.073 88.0751C446.818 92.9526 463.795 101.524 463.795 101.524Z" fill="#6EA8FE"/>
<path opacity="0.5" d="M463.795 101.524C463.795 101.524 481.491 96.9342 486.91 84.724C486.91 84.724 486.556 84.2042 485.926 83.3747L481.325 79.5368C474.793 80.0847 468.302 81.0488 461.893 82.4235C452.182 84.6355 444.628 79.9018 441.752 69.1515C438.877 58.4012 436.222 42.4858 436.222 42.4858C434.718 60.4473 434.773 59.2639 434.331 66.4307C434.021 71.4741 437.328 83.1977 442.073 88.0751C446.818 92.9526 463.795 101.524 463.795 101.524Z" fill="white"/>
</g>
<path d="M486.91 84.7234C483.945 80.4916 480.257 76.8151 476.016 73.8625C470.464 70.5477 464.717 67.5708 458.807 64.9481L455.235 45.0402C458.657 41.7562 461.726 38.1235 464.392 34.2014C467.622 28.9921 466.604 25.4971 464.536 21.8916C462.468 18.286 459.603 20.6197 459.172 22.2676C458.855 24.0028 458.663 25.7584 458.597 27.5211C458.597 27.5211 456.672 14.2491 455.555 11.2297C454.438 8.21036 450.18 11.1191 450.556 12.1256C450.556 12.1256 449.273 8.35414 446.63 8.3099C443.987 8.26566 443.235 12.7339 443.235 12.7339C443.235 12.7339 439.839 11.1634 437.937 13.1321C436.034 15.1007 436.941 20.0335 436.941 20.0335C436.941 20.0335 433.911 21.1395 433.446 25.4418C432.982 29.7442 433.358 37.276 434.552 39.3443C435.166 40.3258 435.702 41.3538 436.156 42.4189C434.652 60.3804 434.707 59.1969 434.265 66.3638C433.955 71.4072 437.262 83.1308 442.007 88.0082C446.752 92.8857 463.729 101.501 463.729 101.501C463.729 101.501 481.458 96.9337 486.91 84.7234Z" stroke="#263238" stroke-width="1.31778" stroke-linecap="round" stroke-linejoin="round"/>
<path d="M457.424 57.2169L455.212 45.0509C458.634 41.7669 461.703 38.1343 464.369 34.2121C467.599 29.0028 466.581 25.5079 464.513 21.9023C462.445 18.2968 459.58 20.6304 459.149 22.2784C458.832 24.0135 458.64 25.7692 458.574 27.5319C458.574 27.5319 456.649 14.2599 455.532 11.2405C454.415 8.2211 450.157 11.1299 450.533 12.1363C450.533 12.1363 449.25 8.36488 446.607 8.32064C443.964 8.2764 443.212 12.7446 443.212 12.7446C443.212 12.7446 439.816 11.1741 437.914 13.1428C436.012 15.1115 436.918 20.0442 436.918 20.0442C436.918 20.0442 433.888 21.1502 433.423 25.4526C432.959 29.7549 433.335 37.2868 434.529 39.355C435.143 40.3365 435.68 41.3645 436.133 42.4297C435.47 50.3708 435.105 54.5957 434.872 57.4049L457.424 57.2169Z" fill="white" stroke="#263238" stroke-width="1.31778" stroke-linecap="round" stroke-linejoin="round"/>
<path d="M439.773 85.001C440.182 85.6677 440.628 86.3103 441.111 86.9254C445.779 83.0212 456.286 73.6534 461.019 65.6128C459.692 65.1925 458.807 64.9492 458.807 64.9492C458.807 64.9492 449.03 77.7678 439.773 85.001Z" fill="white" stroke="#263238" stroke-width="1.31778" stroke-linecap="round" stroke-linejoin="round"/>
<path d="M458.596 27.4991C458.596 27.4991 448.144 27.112 447.038 35.9268" stroke="#263238" stroke-width="1.31778" stroke-linecap="round" stroke-linejoin="round"/>
<path d="M450.556 12.1035L450.91 23.2188" stroke="#263238" stroke-width="1.31778" stroke-linecap="round" stroke-linejoin="round"/>
<path d="M443.234 12.7568L443.953 22.8104" stroke="#263238" stroke-width="1.31778" stroke-linecap="round" stroke-linejoin="round"/>
<path d="M436.941 20.0557L438.069 26.3267" stroke="#263238" stroke-width="1.31778" stroke-linecap="round" stroke-linejoin="round"/>
<path d="M453.011 22.6992C453.011 22.6992 441.21 24.679 436.665 28.5389" stroke="#263238" stroke-width="1.31778" stroke-linecap="round" stroke-linejoin="round"/>
<path d="M450.234 92.4101C454.083 89.0921 453.784 82.4561 449.548 77.4901C445.467 72.7122 439.218 71.3076 435.325 74.1721C436.641 79.2597 439.052 84.9667 442.039 88.0082C444.217 89.9925 446.593 91.7491 449.128 93.2506C449.525 93.0099 449.896 92.7282 450.234 92.4101Z" fill="#6EA8FE"/>
<path d="M450.234 92.4101C454.083 89.0921 453.784 82.4561 449.548 77.4901C445.467 72.7122 439.218 71.3076 435.325 74.1721C436.641 79.2597 439.052 84.9667 442.039 88.0082C444.217 89.9925 446.593 91.7491 449.128 93.2506C449.525 93.0099 449.896 92.7282 450.234 92.4101Z" stroke="#263238" stroke-width="1.31778" stroke-linecap="round" stroke-linejoin="round"/>
<path d="M442.725 105.34C442.725 105.34 437.781 105.86 436.222 107.198C434.662 108.536 422.795 118.69 420.87 124.706C418.946 130.723 426.257 148.728 434.242 155.674C442.227 162.62 452.203 169.975 460.675 168.46C469.147 166.944 478.88 153.893 479.886 150.343C480.893 146.793 447.746 106.103 447.746 106.103C447.746 106.103 445.39 103.736 442.725 105.34Z" fill="white"/>
<mask id="mask2_2309_2002" style="mask-type:luminance" maskUnits="userSpaceOnUse" x="420" y="104" width="60" height="65">
<path d="M442.725 105.34C442.725 105.34 437.781 105.86 436.222 107.198C434.662 108.536 422.795 118.69 420.87 124.706C418.946 130.723 426.257 148.728 434.242 155.674C442.227 162.62 452.203 169.975 460.675 168.46C469.147 166.944 478.88 153.893 479.886 150.343C480.893 146.793 447.746 106.103 447.746 106.103C447.746 106.103 445.39 103.736 442.725 105.34Z" fill="white"/>
</mask>
<g mask="url(#mask2_2309_2002)">
<path d="M442.725 105.34C442.725 105.34 441.752 105.44 440.513 105.672L441.619 107.541C441.619 107.541 440.602 118.026 447.791 129.904C454.98 141.783 467.577 149.326 467.212 153.639C466.847 157.953 468.318 163.715 457.501 162.996C446.685 162.277 435.204 143.928 431.245 134.937C429.188 130.258 427.418 123.158 425.394 117.661C423.443 119.708 421.883 122.096 420.793 124.706C418.869 130.723 426.179 148.728 434.165 155.674C442.15 162.62 452.126 169.975 460.598 168.46C469.07 166.944 478.803 153.893 479.809 150.343C480.816 146.793 447.669 106.103 447.669 106.103C447.669 106.103 445.391 103.736 442.725 105.34Z" fill="#6EA8FE"/>
<path opacity="0.5" d="M442.725 105.34C442.725 105.34 441.752 105.44 440.513 105.672L441.619 107.541C441.619 107.541 440.602 118.026 447.791 129.904C454.98 141.783 467.577 149.326 467.212 153.639C466.847 157.953 468.318 163.715 457.501 162.996C446.685 162.277 435.204 143.928 431.245 134.937C429.188 130.258 427.418 123.158 425.394 117.661C423.443 119.708 421.883 122.096 420.793 124.706C418.869 130.723 426.179 148.728 434.165 155.674C442.15 162.62 452.126 169.975 460.598 168.46C469.07 166.944 478.803 153.893 479.809 150.343C480.816 146.793 447.669 106.103 447.669 106.103C447.669 106.103 445.391 103.736 442.725 105.34Z" fill="white"/>
</g>
<path d="M442.725 105.34C442.725 105.34 437.781 105.86 436.222 107.198C434.662 108.536 422.795 118.69 420.87 124.706C418.946 130.723 426.257 148.728 434.242 155.674C442.227 162.62 452.203 169.975 460.675 168.46C469.147 166.944 478.88 153.893 479.886 150.343C480.893 146.793 447.746 106.103 447.746 106.103C447.746 106.103 445.39 103.736 442.725 105.34Z" stroke="#263238" stroke-width="1.31778" stroke-linecap="round" stroke-linejoin="round"/>
<path d="M484.952 81.218C484.952 81.218 479.71 79.4484 471.901 82.7664C464.093 86.0844 444.561 97.5536 441.696 107.541C439.805 114.099 460.498 144.724 473.427 149.768C476.9 151.117 480.063 152.588 487.175 146.793C494.287 140.997 509.195 124.905 513.1 117.816C517.004 110.726 510.888 105.439 508.842 102.332C506.795 99.2237 490.438 78.8733 484.952 81.218Z" fill="white"/>
<mask id="mask3_2309_2002" style="mask-type:luminance" maskUnits="userSpaceOnUse" x="441" y="80" width="74" height="71">
<path d="M484.952 81.218C484.952 81.218 479.71 79.4484 471.901 82.7664C464.093 86.0844 444.561 97.5536 441.696 107.541C439.805 114.099 460.498 144.724 473.427 149.768C476.9 151.117 480.063 152.588 487.175 146.793C494.287 140.997 509.195 124.905 513.1 117.816C517.004 110.726 510.888 105.439 508.842 102.332C506.795 99.2237 490.438 78.8733 484.952 81.218Z" fill="white"/>
</mask>
<g mask="url(#mask3_2309_2002)">
<path d="M513.144 117.716L499.662 122.008C499.662 122.008 485.638 138.598 480.606 142.878C475.573 147.158 459.736 136.762 454.338 131.718L452.746 130.236C459.194 138.996 467.212 147.357 473.428 149.79C476.901 151.14 480.064 152.611 487.175 146.815C494.287 141.02 509.196 124.927 513.1 117.838C513.121 117.8 513.136 117.759 513.144 117.716Z" fill="#6EA8FE"/>
<path d="M506.143 116.234L513.398 117.174C516.617 110.405 510.866 105.34 508.842 102.31C506.818 99.2791 490.438 78.8734 484.952 81.2181C483.947 80.9359 482.91 80.7835 481.866 80.7646C475.23 85.7638 475.982 91.5039 482.043 101.845C488.104 112.186 506.143 116.234 506.143 116.234Z" fill="#6EA8FE"/>
<g opacity="0.5">
<path d="M513.144 117.716L499.662 122.008C499.662 122.008 485.638 138.598 480.606 142.878C475.573 147.158 459.736 136.762 454.338 131.718L452.746 130.236C459.194 138.996 467.212 147.357 473.428 149.79C476.901 151.14 480.064 152.611 487.175 146.815C494.287 141.02 509.196 124.927 513.1 117.838C513.121 117.8 513.136 117.759 513.144 117.716Z" fill="white"/>
<path d="M506.143 116.234L513.398 117.174C516.617 110.405 510.866 105.34 508.842 102.31C506.818 99.2791 490.438 78.8734 484.952 81.2181C483.947 80.9359 482.91 80.7835 481.866 80.7646C475.23 85.7638 475.982 91.5039 482.043 101.845C488.104 112.186 506.143 116.234 506.143 116.234Z" fill="white"/>
</g>
</g>
<path d="M484.952 81.218C484.952 81.218 479.71 79.4484 471.901 82.7664C464.093 86.0844 444.561 97.5536 441.696 107.541C439.805 114.099 460.498 144.724 473.427 149.768C476.9 151.117 480.063 152.588 487.175 146.793C494.287 140.997 509.195 124.905 513.1 117.816C517.004 110.726 510.888 105.439 508.842 102.332C506.795 99.2237 490.438 78.8733 484.952 81.218Z" stroke="#263238" stroke-width="1.31778" stroke-linecap="round" stroke-linejoin="round"/>
<path d="M490.837 111.543L477.43 93.1499C475.31 90.2426 471.235 89.6038 468.328 91.723L454.171 102.043C451.264 104.162 450.625 108.237 452.744 111.144L466.152 129.538C468.271 132.445 472.346 133.084 475.253 130.965L489.41 120.645C492.318 118.526 492.957 114.451 490.837 111.543Z" fill="white" stroke="#263238" stroke-width="1.31778" stroke-linecap="round" stroke-linejoin="round"/>
<path d="M660.95 220.684C644.415 177.55 603.051 178.025 566.564 178.479C553.989 178.634 542.11 178.788 531.172 177.373C494.265 172.705 483.714 134.77 483.614 134.239C483.526 133.904 483.372 133.59 483.162 133.315C482.952 133.039 482.69 132.808 482.39 132.634C482.091 132.46 481.76 132.346 481.417 132.3C481.074 132.254 480.725 132.276 480.39 132.364C480.055 132.453 479.741 132.606 479.466 132.816C479.191 133.026 478.959 133.288 478.785 133.588C478.611 133.887 478.498 134.218 478.451 134.561C478.405 134.904 478.427 135.253 478.515 135.588C478.626 136.008 490.007 177.439 530.497 182.571C541.812 184.009 554.431 183.843 566.642 183.677C603.14 183.224 640.81 182.748 656.039 222.487C659.436 231.66 660.31 241.576 658.569 251.202C656.827 260.827 652.536 269.809 646.141 277.211C634.815 290.251 618.745 295.538 602.067 291.711C586.328 288.094 570.778 283.117 555.736 278.306C530.84 270.343 505.104 262.103 477.786 259.814C430.946 255.877 398.364 278.693 360.671 305.094C353.084 310.414 345.242 315.899 337.025 321.363L332.347 324.482C309.021 340.054 284.91 356.158 257.625 359.066C236.412 361.278 214.845 351.391 203.929 334.347C200.896 329.713 198.816 324.522 197.81 319.076C196.804 313.631 196.891 308.039 198.067 302.627C199.156 297.943 201.195 293.532 204.058 289.668C206.921 285.804 210.548 282.569 214.712 280.164C228.836 271.748 253.787 268.95 275.067 271.316L275.432 266.063C253.102 263.685 227.044 266.738 212.014 275.685C207.253 278.477 203.108 282.204 199.829 286.643C196.55 291.082 194.205 296.139 192.935 301.51C191.584 307.622 191.467 313.942 192.591 320.099C193.715 326.256 196.059 332.127 199.483 337.367C210.432 354.477 230.241 364.818 251.266 364.851C253.575 364.85 255.882 364.728 258.178 364.486C286.746 361.444 312.527 344.235 335.255 329.094L339.923 325.975C348.207 320.445 356.07 314.915 363.68 309.639C400.542 283.814 432.373 261.506 477.332 265.289C504.053 267.501 529.502 275.674 554.111 283.549C569.263 288.393 584.924 293.403 600.872 297.064C619.519 301.344 637.459 295.449 650.111 280.894C657.155 272.754 661.878 262.869 663.785 252.275C665.692 241.681 664.713 230.769 660.95 220.684Z" fill="white" stroke="#263238" stroke-width="1.31778" stroke-linecap="round" stroke-linejoin="round"/>
<path d="M477.221 99.9534C477.221 100.664 477.01 101.359 476.615 101.95C476.22 102.541 475.659 103.002 475.002 103.274C474.345 103.546 473.623 103.618 472.925 103.479C472.228 103.34 471.588 102.998 471.085 102.495C470.582 101.992 470.24 101.352 470.101 100.655C469.963 99.9574 470.034 99.2346 470.306 98.5778C470.578 97.921 471.039 97.3596 471.63 96.9647C472.221 96.5697 472.916 96.3589 473.627 96.3589C474.58 96.3589 475.494 96.7376 476.168 97.4117C476.843 98.0858 477.221 99.0001 477.221 99.9534Z" fill="#6EA8FE" stroke="#263238" stroke-width="1.31778" stroke-linecap="round" stroke-linejoin="round"/>
<path d="M467.466 108.159C467.468 108.871 467.259 109.567 466.865 110.16C466.471 110.753 465.909 111.216 465.252 111.489C464.595 111.762 463.871 111.834 463.173 111.696C462.475 111.558 461.833 111.215 461.33 110.712C460.826 110.209 460.484 109.567 460.345 108.869C460.207 108.17 460.279 107.447 460.553 106.79C460.826 106.132 461.288 105.571 461.881 105.177C462.474 104.783 463.171 104.574 463.882 104.576C464.833 104.576 465.744 104.953 466.416 105.625C467.088 106.297 467.466 107.209 467.466 108.159Z" fill="#6EA8FE" stroke="#263238" stroke-width="1.31778" stroke-linecap="round" stroke-linejoin="round"/>
<path d="M516.959 109.034C532.503 104.518 541.443 88.2559 536.927 72.7118C532.411 57.1676 516.149 48.2275 500.605 52.7435C485.061 57.2595 476.121 73.5215 480.637 89.0657C485.153 104.61 501.415 113.55 516.959 109.034Z" fill="white"/>
<mask id="mask4_2309_2002" style="mask-type:luminance" maskUnits="userSpaceOnUse" x="479" y="51" width="60" height="60">
<path d="M516.959 109.033C532.503 104.517 541.443 88.2555 536.927 72.7113C532.411 57.1671 516.149 48.227 500.605 52.743C485.061 57.259 476.121 73.521 480.637 89.0652C485.153 104.609 501.415 113.549 516.959 109.033Z" fill="white"/>
</mask>
<g mask="url(#mask4_2309_2002)">
<path d="M531.05 61.8287C530.033 60.6374 528.924 59.528 527.732 58.5107C529.456 64.5546 529.189 70.9927 526.971 76.8731C524.753 82.7535 520.701 87.7639 515.415 91.1635C510.129 94.5631 503.889 96.1714 497.619 95.7504C491.348 95.3295 485.379 92.9018 480.595 88.8262C481.783 93.0447 483.902 96.9429 486.797 100.234C489.691 103.524 493.287 106.124 497.32 107.84C501.352 109.557 505.718 110.347 510.096 110.153C514.475 109.958 518.754 108.784 522.618 106.716C526.482 104.648 529.833 101.74 532.424 98.2056C535.015 94.6711 536.781 90.6002 537.59 86.293C538.399 81.9857 538.231 77.5518 537.1 73.3179C535.968 69.0839 533.901 65.1578 531.05 61.8287Z" fill="#6EA8FE"/>
<path opacity="0.5" d="M531.05 61.8287C530.033 60.6374 528.924 59.528 527.732 58.5107C529.456 64.5546 529.189 70.9927 526.971 76.8731C524.753 82.7535 520.701 87.7639 515.415 91.1635C510.129 94.5631 503.889 96.1714 497.619 95.7504C491.348 95.3295 485.379 92.9018 480.595 88.8262C481.783 93.0447 483.902 96.9429 486.797 100.234C489.691 103.524 493.287 106.124 497.32 107.84C501.352 109.557 505.718 110.347 510.096 110.153C514.475 109.958 518.754 108.784 522.618 106.716C526.482 104.648 529.833 101.74 532.424 98.2056C535.015 94.6711 536.781 90.6002 537.59 86.293C538.399 81.9857 538.231 77.5518 537.1 73.3179C535.968 69.0839 533.901 65.1578 531.05 61.8287Z" fill="white"/>
</g>
<path d="M516.959 109.034C532.503 104.518 541.443 88.2559 536.927 72.7118C532.411 57.1676 516.149 48.2275 500.605 52.7435C485.061 57.2595 476.121 73.5215 480.637 89.0657C485.153 104.61 501.415 113.55 516.959 109.034Z" stroke="#263238" stroke-width="1.31778" stroke-linecap="round" stroke-linejoin="round"/>
<path d="M534.8 101.137L543.339 93.8369" stroke="#263238" stroke-width="1.31778" stroke-linecap="round" stroke-linejoin="round"/>
<path d="M545.606 94.7557C546.06 94.3671 546.342 93.8137 546.388 93.2174C546.435 92.6211 546.243 92.0306 545.854 91.576C545.466 91.1213 544.912 90.8397 544.316 90.793C543.72 90.7463 543.129 90.9385 542.675 91.3271C542.449 91.5196 542.264 91.7545 542.13 92.0184C541.996 92.2824 541.915 92.5702 541.892 92.8655C541.845 93.4618 542.037 94.0522 542.426 94.5069C542.814 94.9615 543.368 95.2432 543.964 95.2899C544.56 95.3365 545.151 95.1444 545.606 94.7557Z" fill="#263238"/>
<path d="M524.337 109.985C524.009 109.601 523.759 109.155 523.603 108.674C523.447 108.192 523.387 107.685 523.427 107.181C523.467 106.676 523.606 106.185 523.837 105.734C524.067 105.284 524.384 104.883 524.769 104.555L530.387 99.7328C531.167 99.0712 532.177 98.7453 533.197 98.8261C534.217 98.9069 535.163 99.3879 535.829 100.164C536.158 100.548 536.408 100.993 536.565 101.474C536.723 101.955 536.783 102.462 536.744 102.966C536.705 103.471 536.567 103.963 536.338 104.414C536.109 104.864 535.793 105.266 535.408 105.595L529.779 110.417C529 111.081 527.989 111.409 526.969 111.328C525.948 111.247 525.002 110.764 524.337 109.985Z" fill="white" stroke="#263238" stroke-width="1.31778" stroke-linecap="round" stroke-linejoin="round"/>
<path d="M515.168 114.817C515.168 114.817 503.787 111.743 499.308 120.292C494.828 128.842 499.883 150.154 499.883 150.154C499.883 150.154 491.566 163.669 489.453 165.14C487.341 166.611 481.39 165.97 475.529 168.956C469.667 171.942 471.602 175.006 473.162 176.035C474.721 177.063 479.499 173.988 480.904 174.099C482.308 174.21 482.154 176.742 476.624 182.483C471.094 188.223 468.561 188.366 470.142 191.021C470.572 191.78 471.233 192.382 472.029 192.739C472.825 193.095 473.714 193.187 474.566 193.001C474.371 193.658 474.421 194.364 474.705 194.988C474.99 195.612 475.491 196.112 476.115 196.396C478.393 197.502 479.366 196.65 479.366 196.65C479.366 196.65 479.145 199.537 481.258 200.422C482.915 200.909 484.677 200.909 486.334 200.422C486.334 200.422 488.336 202.767 490.36 202.379C492.384 201.992 496.996 196.352 500.646 191.552C504.296 186.752 518.342 169.686 523.872 159.223C529.402 148.761 526.781 138.209 525.653 131.761C524.524 125.313 519.415 116.233 515.168 114.817Z" fill="white"/>
<mask id="mask5_2309_2002" style="mask-type:luminance" maskUnits="userSpaceOnUse" x="469" y="114" width="59" height="89">
<path d="M515.168 114.817C515.168 114.817 503.787 111.743 499.308 120.292C494.828 128.842 499.883 150.154 499.883 150.154C499.883 150.154 491.566 163.669 489.453 165.14C487.341 166.611 481.39 165.97 475.529 168.956C469.667 171.942 471.602 175.006 473.162 176.035C474.721 177.063 479.499 173.988 480.904 174.099C482.308 174.21 482.154 176.742 476.624 182.483C471.094 188.223 468.561 188.366 470.142 191.021C470.572 191.78 471.233 192.382 472.029 192.739C472.825 193.095 473.714 193.187 474.566 193.001C474.371 193.658 474.421 194.364 474.705 194.988C474.99 195.612 475.491 196.112 476.115 196.396C478.393 197.502 479.366 196.65 479.366 196.65C479.366 196.65 479.145 199.537 481.258 200.422C482.915 200.909 484.677 200.909 486.334 200.422C486.334 200.422 488.336 202.767 490.36 202.379C492.384 201.992 496.996 196.352 500.646 191.552C504.296 186.752 518.342 169.686 523.872 159.223C529.402 148.761 526.781 138.209 525.653 131.761C524.524 125.313 519.415 116.233 515.168 114.817Z" fill="white"/>
</mask>
<g mask="url(#mask5_2309_2002)">
<path d="M525.653 131.796C524.547 125.348 519.416 116.235 515.168 114.819L514.903 114.753C518.794 124.085 520.354 134.224 519.449 144.294C518.011 162.632 501.189 177.098 496.068 182.418C491.965 186.687 486.8 192.671 479.356 197.095C479.328 197.769 479.49 198.439 479.825 199.026C480.159 199.612 480.652 200.093 481.247 200.413C482.905 200.9 484.667 200.9 486.324 200.413C486.324 200.413 488.326 202.757 490.35 202.37C492.374 201.983 496.986 196.343 500.636 191.542C504.285 186.742 518.332 169.677 523.862 159.214C529.392 148.751 526.781 138.244 525.653 131.796Z" fill="#6EA8FE"/>
<path opacity="0.5" d="M525.653 131.796C524.547 125.348 519.416 116.235 515.168 114.819L514.903 114.753C518.794 124.085 520.354 134.224 519.449 144.294C518.011 162.632 501.189 177.098 496.068 182.418C491.965 186.687 486.8 192.671 479.356 197.095C479.328 197.769 479.49 198.439 479.825 199.026C480.159 199.612 480.652 200.093 481.247 200.413C482.905 200.9 484.667 200.9 486.324 200.413C486.324 200.413 488.326 202.757 490.35 202.37C492.374 201.983 496.986 196.343 500.636 191.542C504.285 186.742 518.332 169.677 523.862 159.214C529.392 148.751 526.781 138.244 525.653 131.796Z" fill="white"/>
</g>
<path d="M515.168 114.817C515.168 114.817 503.787 111.743 499.308 120.292C494.828 128.842 499.883 150.154 499.883 150.154C499.883 150.154 491.566 163.669 489.453 165.14C487.341 166.611 481.39 165.97 475.529 168.956C469.667 171.942 471.602 175.006 473.162 176.035C474.721 177.063 479.499 173.988 480.904 174.099C482.308 174.21 482.154 176.742 476.624 182.483C471.094 188.223 468.561 188.366 470.142 191.021C470.572 191.78 471.233 192.382 472.029 192.739C472.825 193.095 473.714 193.187 474.566 193.001C474.371 193.658 474.421 194.364 474.705 194.988C474.99 195.612 475.491 196.112 476.115 196.396C478.393 197.502 479.366 196.65 479.366 196.65C479.366 196.65 479.145 199.537 481.258 200.422C482.915 200.909 484.677 200.909 486.334 200.422C486.334 200.422 488.336 202.767 490.36 202.379C492.384 201.992 496.996 196.352 500.646 191.552C504.296 186.752 518.342 169.686 523.872 159.223C529.402 148.761 526.781 138.209 525.653 131.761C524.524 125.313 519.415 116.233 515.168 114.817Z" stroke="#263238" stroke-width="1.31778" stroke-linecap="round" stroke-linejoin="round"/>
<path d="M490.349 202.413C492.373 202.026 496.985 196.385 500.635 191.585C502.703 188.875 508.1 182.228 513.398 175.072C509.848 162.906 499.341 159.268 494.662 158.261C492.55 161.424 490.382 164.455 489.453 165.107C487.341 166.578 481.39 165.937 475.529 168.923C469.667 171.909 471.602 174.973 473.162 176.001C474.721 177.03 479.499 173.955 480.904 174.066C482.308 174.177 482.154 176.709 476.624 182.449C471.094 188.19 468.561 188.367 470.142 191.021C470.572 191.78 471.233 192.382 472.029 192.739C472.825 193.095 473.714 193.187 474.566 193.001C474.371 193.658 474.421 194.364 474.705 194.988C474.99 195.612 475.491 196.112 476.115 196.396C478.393 197.502 479.366 196.65 479.366 196.65C479.366 196.65 479.145 199.537 481.258 200.422C482.915 200.91 484.677 200.91 486.334 200.422C486.334 200.422 488.325 202.8 490.349 202.413Z" stroke="#263238" stroke-width="1.31778" stroke-linecap="round" stroke-linejoin="round"/>
<path d="M474.567 193.002C478.779 190.815 482.534 187.842 485.627 184.242" stroke="#263238" stroke-width="1.31778" stroke-linecap="round" stroke-linejoin="round"/>
<path d="M479.355 196.65C483.782 194.499 487.726 191.47 490.946 187.747" stroke="#263238" stroke-width="1.31778" stroke-linecap="round" stroke-linejoin="round"/>
<path d="M486.323 200.455C486.323 200.455 492.694 195.688 495.724 191.75" stroke="#263238" stroke-width="1.31778" stroke-linecap="round" stroke-linejoin="round"/>
<path d="M526.161 153.462C526.393 152.621 526.57 151.781 526.725 150.951C517.457 144.768 505.778 146.792 499.551 148.595C499.75 149.557 499.883 150.122 499.883 150.122L498.92 151.67C513.807 148.075 522.014 150.763 526.161 153.462Z" fill="white" stroke="#263238" stroke-width="1.31778" stroke-linecap="round" stroke-linejoin="round"/>
<path d="M519.702 159.114C520.526 160.075 521.505 160.89 522.6 161.525C523.053 160.74 523.485 159.987 523.872 159.313C526.69 153.757 527.814 147.496 527.101 141.307C524.754 141.41 522.508 142.294 520.72 143.818C518.566 145.717 517.251 148.391 517.061 151.256C516.87 154.121 517.819 156.946 519.702 159.114Z" fill="#6EA8FE" stroke="#263238" stroke-width="1.31778" stroke-linecap="round" stroke-linejoin="round"/>
<path d="M414.909 118.789C414.909 118.789 419.51 132.061 425.427 133.046C431.344 134.03 439.573 123.987 441.243 116.456C442.913 108.924 437.04 102.863 428.546 95.2978C420.052 87.7327 407.875 83.3308 397.578 89.071C387.281 94.8111 372.063 111.191 372.063 111.191C372.063 111.191 362.54 102.819 357.485 107.143C352.431 111.467 359.023 124.695 363.679 130.148C368.335 135.6 376.829 143.597 384.981 141.694C393.132 139.792 399.591 124.496 404.889 119.995C410.186 115.493 413.737 117.429 414.909 118.789Z" fill="white"/>
<mask id="mask6_2309_2002" style="mask-type:luminance" maskUnits="userSpaceOnUse" x="355" y="86" width="87" height="56">
<path d="M414.909 118.789C414.909 118.789 419.51 132.061 425.427 133.046C431.344 134.03 439.573 123.987 441.243 116.456C442.913 108.924 437.04 102.863 428.546 95.2978C420.052 87.7327 407.875 83.3308 397.578 89.071C387.281 94.8111 372.063 111.191 372.063 111.191C372.063 111.191 362.54 102.819 357.485 107.143C352.431 111.467 359.023 124.695 363.679 130.148C368.335 135.6 376.829 143.597 384.981 141.694C393.132 139.792 399.591 124.496 404.889 119.995C410.186 115.493 413.737 117.429 414.909 118.789Z" fill="white"/>
</mask>
<g mask="url(#mask6_2309_2002)">
<path d="M428.114 122.007C419.123 117.694 421.644 106.899 412.63 104.024C403.617 101.148 404.358 107.264 397.146 118.778C389.935 130.291 376.641 129.561 367.649 126.685C364.799 125.763 361.997 124.696 359.255 123.489C360.484 125.893 361.967 128.159 363.679 130.247C368.335 135.699 376.796 143.618 384.936 141.716C393.076 139.814 399.546 124.518 404.844 120.016C410.142 115.515 413.759 117.45 414.92 118.811C414.92 118.811 419.521 132.083 425.438 133.067C431.355 134.051 439.584 124.009 441.254 116.477C441.531 115.244 441.602 113.973 441.464 112.717L441.044 112.628C441.044 112.628 437.073 126.309 428.114 122.007Z" fill="#6EA8FE"/>
<path opacity="0.5" d="M428.114 122.007C419.123 117.694 421.644 106.899 412.63 104.024C403.617 101.148 404.358 107.264 397.146 118.778C389.935 130.291 376.641 129.561 367.649 126.685C364.799 125.763 361.997 124.696 359.255 123.489C360.484 125.893 361.967 128.159 363.679 130.247C368.335 135.699 376.796 143.618 384.936 141.716C393.076 139.814 399.546 124.518 404.844 120.016C410.142 115.515 413.759 117.45 414.92 118.811C414.92 118.811 419.521 132.083 425.438 133.067C431.355 134.051 439.584 124.009 441.254 116.477C441.531 115.244 441.602 113.973 441.464 112.717L441.044 112.628C441.044 112.628 437.073 126.309 428.114 122.007Z" fill="white"/>
</g>
<path d="M414.909 118.789C414.909 118.789 419.51 132.061 425.427 133.046C431.344 134.03 439.573 123.987 441.243 116.456C442.913 108.924 437.04 102.863 428.546 95.2978C420.052 87.7327 407.875 83.3308 397.578 89.071C387.281 94.8111 372.063 111.191 372.063 111.191C372.063 111.191 362.54 102.819 357.485 107.143C352.431 111.467 359.023 124.695 363.679 130.148C368.335 135.6 376.829 143.597 384.981 141.694C393.132 139.792 399.591 124.496 404.889 119.995C410.186 115.493 413.737 117.429 414.909 118.789Z" stroke="#263238" stroke-width="1.31778" stroke-linecap="round" stroke-linejoin="round"/>
<path d="M385.899 97.874C378.555 104.311 372.096 111.268 372.096 111.268C372.096 111.268 362.574 102.895 357.519 107.22C352.465 111.544 359.057 124.772 363.713 130.225C368.369 135.677 376.83 143.596 384.981 141.694C392.325 139.979 398.253 127.316 403.252 121.62C396.309 114.621 390.459 106.616 385.899 97.874Z" stroke="#263238" stroke-width="1.31778" stroke-linecap="round" stroke-linejoin="round"/>
<path d="M410.419 86.6151C409.515 86.5103 408.607 86.4549 407.698 86.4492C410.399 96.5415 411.017 107.079 409.512 117.417C410.396 117.181 411.321 117.143 412.221 117.307C412.83 109.465 413.283 96.4696 410.419 86.6151Z" stroke="#263238" stroke-width="1.31778" stroke-linecap="round" stroke-linejoin="round"/>
<path d="M416.623 103.846C415.158 105.091 413.357 105.873 411.448 106.094C409.538 106.315 407.606 105.966 405.896 105.089C404.185 104.212 402.773 102.848 401.837 101.169C400.901 99.4903 400.484 97.5715 400.639 95.6556C400.793 93.7397 401.512 91.9125 402.705 90.4051C403.898 88.8977 405.51 87.7776 407.339 87.1865C409.168 86.5954 411.132 86.5597 412.981 87.084C414.83 87.6082 416.482 88.6689 417.729 90.132C418.558 91.1047 419.187 92.2313 419.58 93.4473C419.973 94.6633 420.122 95.9448 420.019 97.2185C419.917 98.4923 419.564 99.7333 418.981 100.871C418.398 102.008 417.597 103.019 416.623 103.846Z" fill="#6EA8FE" stroke="#263238" stroke-width="1.31778" stroke-linecap="round" stroke-linejoin="round"/>
<path d="M384.981 141.694C386.918 141.148 388.689 140.129 390.135 138.73C384.926 139.593 375.304 139.305 366.555 128.776C358.039 118.557 357.895 110.605 358.736 106.424C358.302 106.624 357.896 106.88 357.53 107.187C352.465 111.511 359.068 124.739 363.724 130.192C368.38 135.644 376.83 143.596 384.981 141.694Z" stroke="#263238" stroke-width="1.31778" stroke-linecap="round" stroke-linejoin="round"/>
<path d="M441.531 165.793C441.531 165.793 454.991 169.753 459.227 165.528C463.463 161.303 464.093 148.462 454.936 143.021C448.3 139.106 441.432 138.597 430.338 141.074C419.245 143.552 408.594 150.951 407.3 162.63C406.006 174.31 410.508 196.275 410.508 196.275C410.508 196.275 398.176 199.161 398.751 205.797C399.326 212.433 413.936 214.745 421.07 214.114C428.204 213.484 439.584 211.206 442.759 203.475C445.933 195.744 437.229 181.598 436.631 174.719C436.034 167.839 439.75 165.948 441.531 165.793Z" fill="white"/>
<mask id="mask7_2309_2002" style="mask-type:luminance" maskUnits="userSpaceOnUse" x="398" y="139" width="65" height="76">
<path d="M441.531 165.793C441.531 165.793 454.991 169.753 459.227 165.528C463.463 161.303 464.093 148.462 454.936 143.021C448.3 139.106 441.432 138.597 430.338 141.074C419.245 143.552 408.594 150.951 407.3 162.63C406.006 174.31 410.508 196.275 410.508 196.275C410.508 196.275 398.176 199.161 398.751 205.797C399.326 212.433 413.936 214.745 421.07 214.114C428.204 213.484 439.584 211.206 442.759 203.475C445.933 195.744 437.229 181.598 436.631 174.719C436.034 167.839 439.75 165.948 441.531 165.793Z" fill="white"/>
</mask>
<g mask="url(#mask7_2309_2002)">
<path d="M441.531 165.793C441.531 165.793 454.991 169.753 459.227 165.528C461.992 162.774 463.197 156.392 461.195 150.763C461.195 150.763 462.301 156.525 454.36 157.963C446.419 159.401 433.501 156.525 427.75 163.714C421.999 170.903 430.26 185.657 430.979 195.368C431.698 205.078 429.519 208.275 419.809 209.381C410.098 210.487 401.416 203.519 399.414 207.744C402.389 212.865 414.71 214.656 421.092 214.092C428.236 213.462 439.606 211.183 442.78 203.453C445.955 195.722 437.25 181.576 436.653 174.697C436.056 167.817 439.75 165.948 441.531 165.793Z" fill="#6EA8FE"/>
<path opacity="0.5" d="M441.531 165.793C441.531 165.793 454.991 169.753 459.227 165.528C461.992 162.774 463.197 156.392 461.195 150.763C461.195 150.763 462.301 156.525 454.36 157.963C446.419 159.401 433.501 156.525 427.75 163.714C421.999 170.903 430.26 185.657 430.979 195.368C431.698 205.078 429.519 208.275 419.809 209.381C410.098 210.487 401.416 203.519 399.414 207.744C402.389 212.865 414.71 214.656 421.092 214.092C428.236 213.462 439.606 211.183 442.78 203.453C445.955 195.722 437.25 181.576 436.653 174.697C436.056 167.817 439.75 165.948 441.531 165.793Z" fill="white"/>
</g>
<path d="M441.531 165.793C441.531 165.793 454.991 169.753 459.227 165.528C463.463 161.303 464.093 148.462 454.936 143.021C448.3 139.106 441.432 138.597 430.338 141.074C419.245 143.552 408.594 150.951 407.3 162.63C406.006 174.31 410.508 196.275 410.508 196.275C410.508 196.275 398.176 199.161 398.751 205.797C399.326 212.433 413.936 214.745 421.07 214.114C428.204 213.484 439.584 211.206 442.759 203.475C445.933 195.744 437.229 181.598 436.631 174.719C436.034 167.839 439.75 165.948 441.531 165.793Z" stroke="#263238" stroke-width="1.31778" stroke-linecap="round" stroke-linejoin="round"/>
<path d="M407.654 177.307C408.627 187.029 410.53 196.32 410.53 196.32C410.53 196.32 398.198 199.206 398.773 205.842C399.348 212.478 413.958 214.79 421.092 214.159C428.226 213.529 439.606 211.251 442.781 203.52C445.645 196.541 438.865 184.364 437.052 176.976C427.325 178.565 417.414 178.677 407.654 177.307Z" stroke="#263238" stroke-width="1.31778" stroke-linecap="round" stroke-linejoin="round"/>
<path d="M412.719 150.829C412.112 151.501 411.544 152.206 411.016 152.942C420.78 156.612 429.701 162.222 437.239 169.432C437.566 168.595 438.072 167.841 438.721 167.22C432.738 162.077 422.419 154.158 412.719 150.829Z" stroke="#263238" stroke-width="1.31778" stroke-linecap="round" stroke-linejoin="round"/>
<path d="M423.589 165.879C428.717 164.266 431.566 158.802 429.953 153.674C428.341 148.546 422.876 145.697 417.749 147.31C412.621 148.923 409.772 154.387 411.385 159.514C412.997 164.642 418.462 167.491 423.589 165.879Z" fill="#6EA8FE" stroke="#263238" stroke-width="1.31778" stroke-linecap="round" stroke-linejoin="round"/>
<path d="M442.781 203.474C443.464 201.581 443.661 199.547 443.356 197.557C441.033 202.302 435.216 209.966 421.59 210.984C408.318 211.979 401.759 207.478 398.861 204.348C398.765 204.817 398.735 205.297 398.773 205.775C399.359 212.411 413.958 214.722 421.092 214.092C428.226 213.461 439.606 211.205 442.781 203.474Z" stroke="#263238" stroke-width="1.31778" stroke-linecap="round" stroke-linejoin="round"/>
<path d="M518.663 68.5429C515.742 64.7062 513.092 60.6706 510.733 56.4653C505.782 55.8014 500.746 56.6368 496.275 58.8635C491.803 61.0902 488.102 64.6061 485.649 68.9572C483.195 73.3084 482.103 78.295 482.512 83.2734C482.92 88.2517 484.812 92.9932 487.943 96.8858C491.073 100.778 495.298 103.643 500.073 105.11C504.848 106.578 509.953 106.58 514.729 105.117C519.505 103.655 523.733 100.794 526.867 96.9042C530.001 93.0146 531.897 88.2749 532.311 83.2969C527.282 78.845 522.71 73.9025 518.663 68.5429Z" fill="#263238" stroke="#263238" stroke-width="1.31778" stroke-linecap="round" stroke-linejoin="round"/>
<path d="M521.086 91.2264C519.933 92.3516 518.468 93.104 516.883 93.3859C515.297 93.6678 513.662 93.4661 512.193 92.8072C510.723 92.1482 509.485 91.0624 508.64 89.6908C507.796 88.3191 507.383 86.7252 507.456 85.116C507.529 83.5068 508.084 81.9568 509.05 80.6674C510.016 79.378 511.347 78.4088 512.87 77.8858C514.394 77.3627 516.039 77.31 517.593 77.7345C519.147 78.159 520.537 79.041 521.584 80.266C522.272 81.0173 522.806 81.8974 523.154 82.8556C523.502 83.8137 523.658 84.8312 523.611 85.8496C523.565 86.868 523.318 87.8672 522.885 88.7899C522.451 89.7126 521.84 90.5406 521.086 91.2264Z" fill="white"/>
<path d="M512.868 72.7015C512.512 73.0164 512.07 73.2178 511.598 73.2799C511.127 73.342 510.647 73.262 510.222 73.0502C509.796 72.8383 509.443 72.5042 509.208 72.0907C508.974 71.6771 508.868 71.2029 508.904 70.7288C508.94 70.2547 509.117 69.8022 509.412 69.4292C509.707 69.0563 510.107 68.7799 510.56 68.6354C511.013 68.4909 511.499 68.4849 511.955 68.6182C512.412 68.7515 512.818 69.0179 513.122 69.3835C513.522 69.8599 513.72 70.4741 513.672 71.0944C513.625 71.7147 513.336 72.2916 512.868 72.7015Z" fill="white"/>
<path d="M276.658 263.44L269.559 262.742L268.549 273L275.649 273.699L276.658 263.44Z" fill="#263238"/>
</g>
<defs>
<clipPath id="clip0_2309_2002">
<rect width="807.751" height="399.831" fill="white"/>
</clipPath>
</defs>
</svg>
