<svg width="43" height="35" viewBox="0 0 43 35" fill="none" xmlns="http://www.w3.org/2000/svg">
<path d="M35.6143 7.72782C33.3667 4.41638 30.4524 2.30391 26.5477 1.143C25.1953 0.74334 24.3572 0.648186 22.3763 0.591091C21.0239 0.553028 19.6525 0.57206 19.3287 0.610123C18.0334 0.800434 16.0144 1.33331 14.9477 1.77103C13.6525 2.30391 10.9858 4.01672 10.3001 4.75894L9.82393 5.25376L10.3954 5.78663C11.6334 6.90948 11.5001 6.89045 12.7001 5.95791C14.0525 4.89216 15.6334 4.09285 17.5191 3.50288C18.7382 3.12225 19.3477 3.06516 21.7096 3.06516C24.1858 3.06516 24.6429 3.12225 26.0905 3.579C29.6715 4.72088 32.5477 7.17591 34.262 10.5254L34.6619 11.3438H35.9C36.5667 11.3438 37.1572 11.2867 37.1953 11.1915C37.3477 10.9631 36.3953 8.8697 35.6143 7.72782Z" fill="#052C65"/>
<path d="M9.51917 8.96486C9.51917 8.81261 9.13822 8.39392 8.68107 8.03233C7.70965 7.23301 7.55727 7.19495 7.17632 7.78492C6.73822 8.45101 5.51918 10.9251 5.51918 11.1535C5.51918 11.2676 6.09061 11.3438 6.90965 11.3438H8.30012L8.90965 10.278C9.2525 9.68804 9.51917 9.09808 9.51917 8.96486Z" fill="#052C65"/>
<path d="M20.1287 21.9442C19.9382 21.1829 16.9477 13.3991 16.7382 13.1327C16.4906 12.8282 13.9763 12.8282 13.7287 13.1327C13.6334 13.2469 13.2525 14.0652 12.8906 14.9597C10.662 20.2504 9.93821 22.1155 10.0715 22.2487C10.1477 22.3248 10.8144 22.3819 11.5382 22.3438L12.8525 22.2868L13.2906 21.0497C14.5287 17.5289 15.1001 16.2158 15.2525 16.5774C15.3287 16.7867 15.8049 18.0618 16.2811 19.4321C16.7763 20.7833 17.2525 22.0013 17.3668 22.1345C17.5001 22.2868 18.0525 22.3819 18.8906 22.3819C20.1858 22.3819 20.2239 22.3629 20.1287 21.9442Z" fill="#052C65"/>
<path d="M32.9286 14.9978C33.7858 14.0081 34.4524 13.1708 34.4143 13.1327C34.281 12.9995 33.6905 12.9614 32.3381 13.0185L31.081 13.0756L29.6715 14.6933L28.281 16.33L28.2239 14.6742L28.1667 13.0375L26.7953 13.0946L25.4239 13.1517V17.7192V22.2868H26.7572H28.0905L28.1858 20.4978L28.281 18.7089L29.7667 20.5359L31.2715 22.3819H32.7572C33.5953 22.3819 34.3191 22.3058 34.3762 22.1916C34.4334 22.0964 33.6524 20.9736 32.6429 19.7175C30.9858 17.6431 30.8334 17.3957 31.081 17.0912C31.2334 16.9199 32.0524 15.9684 32.9286 14.9978Z" fill="#052C65"/>
<path d="M6.5668 17.7192L4.87156 15.3784L3.19538 13.0566H1.90014C1.21443 13.0566 0.566813 13.1137 0.509671 13.1898C0.262052 13.4182 0.35729 21.9061 0.604908 22.1535C0.852526 22.4009 2.62395 22.458 2.98585 22.2297C3.13823 22.1345 3.23347 21.3733 3.27157 20.022L3.32871 17.9667L4.6049 19.5462C6.90965 22.439 6.85251 22.4009 8.22393 22.3438L9.42393 22.2868L9.48107 17.6621L9.51917 13.0375L8.14774 13.0946L6.75727 13.1517L6.66203 15.4355L6.5668 17.7192Z" fill="#052C65"/>
<path d="M23.9763 22.1345C24.1286 21.9252 24.1858 20.631 24.1477 17.5099L24.0906 13.1517L22.7001 13.0946C21.6906 13.0566 21.2906 13.1137 21.2334 13.285C21.1763 13.4372 21.1572 15.5116 21.1763 17.9096L21.2334 22.2868L22.4906 22.3438C23.3858 22.3819 23.8048 22.3248 23.9763 22.1345Z" fill="#052C65"/>
<path d="M38.1857 22.2868L38.2429 17.6621L38.281 13.0566H36.8524H35.4239L35.4619 17.6621L35.5191 22.2868H36.8524H38.1857Z" fill="#052C65"/>
<path d="M42.4524 22.1345C42.6048 21.9252 42.6619 20.631 42.6238 17.5099L42.5667 13.1517L41.1762 13.0946C40.1667 13.0566 39.7667 13.1137 39.7096 13.285C39.6524 13.4372 39.6334 15.5116 39.6524 17.9096L39.7096 22.2868L40.9667 22.3438C41.8619 22.3819 42.281 22.3248 42.4524 22.1345Z" fill="#052C65"/>
<path d="M10.9477 27.6345C10.3192 26.9875 8.87155 25.1224 8.54774 24.5134C8.24298 23.9805 8.16679 23.9615 6.96679 23.9234C6.28108 23.9044 5.70966 23.9805 5.70966 24.0757C5.70966 24.1708 5.84299 24.5324 5.99537 24.9131C7.63346 28.8335 11.9573 32.4304 16.8715 33.9149C18.4334 34.3906 18.8334 34.4287 21.7096 34.4287C24.5667 34.4287 25.0048 34.3906 26.5477 33.9149C28.7001 33.2678 31.2524 31.9546 32.4334 30.9079C33.4048 30.0325 33.4048 30.0515 32.3381 29.0619L31.6524 28.4339L30.7191 29.138C28.4334 30.8889 24.7763 32.0879 21.6715 32.0879C17.7858 32.0879 13.5953 30.356 10.9477 27.6345Z" fill="#052C65"/>
<path d="M35.881 27.2729C36.5477 26.4356 37.5572 24.7037 37.5953 24.3421C37.6143 24.0567 37.4238 23.9996 36.3381 23.9425L35.081 23.8854L34.3191 24.875C33.9 25.4269 33.5953 25.9598 33.6524 26.074C33.7096 26.1882 34.1286 26.6259 34.6048 27.0446L35.4619 27.8058L35.881 27.2729Z" fill="#052C65"/>
</svg>
