<svg width="80" height="80" viewBox="0 0 80 80" fill="none" xmlns="http://www.w3.org/2000/svg">
<rect width="80" height="80" rx="40" fill="white"/>
<path d="M63.0438 24.046C59.3742 18.6396 54.6162 15.1906 48.2411 13.2953C46.0331 12.6428 44.6648 12.4874 41.4306 12.3942C39.2227 12.332 36.9836 12.3631 36.4549 12.4253C34.3403 12.736 31.0439 13.606 29.3024 14.3206C27.1877 15.1906 22.834 17.9871 21.7145 19.1988L20.937 20.0067L21.87 20.8767C23.8913 22.7099 23.6736 22.6789 25.6328 21.1563C27.8408 19.4163 30.4219 18.1113 33.5006 17.1481C35.4909 16.5267 36.486 16.4335 40.3422 16.4335C44.3849 16.4335 45.1313 16.5267 47.4948 17.2724C53.3412 19.1367 58.037 23.1449 60.8358 28.6135L61.4889 29.9496H63.5103C64.5987 29.9496 65.5627 29.8564 65.6249 29.701C65.8737 29.3282 64.3188 25.9103 63.0438 24.046Z" fill="#052C65"/>
<path d="M20.4394 26.0656C20.4394 25.8171 19.8175 25.1335 19.0711 24.5431C17.4851 23.2381 17.2363 23.176 16.6144 24.1392C15.8991 25.2267 13.9089 29.266 13.9089 29.6389C13.9089 29.8253 14.8418 29.9496 16.179 29.9496H18.4492L19.4443 28.2096C20.0041 27.2464 20.4394 26.2831 20.4394 26.0656Z" fill="#052C65"/>
<path d="M37.7611 47.2564C37.4501 46.0135 32.5677 33.3053 32.2256 32.8703C31.8213 32.3731 27.7164 32.3731 27.3121 32.8703C27.1566 33.0567 26.5347 34.3928 25.9438 35.8532C22.3053 44.491 21.1236 47.536 21.3413 47.7535C21.4657 47.8778 22.5541 47.971 23.7358 47.9089L25.8816 47.8157L26.5969 45.796C28.6182 40.0478 29.5512 37.9039 29.8 38.4942C29.9244 38.836 30.7018 40.9178 31.4793 43.155C32.2878 45.361 33.0653 47.3496 33.2518 47.5671C33.4695 47.8157 34.3714 47.971 35.7397 47.971C37.8544 47.971 37.9166 47.94 37.7611 47.2564Z" fill="#052C65"/>
<path d="M58.659 35.9153C60.0584 34.2996 61.1468 32.9324 61.0846 32.8703C60.8669 32.6528 59.9029 32.5907 57.6949 32.6839L55.6424 32.7771L53.3412 35.4182L51.071 38.0903L50.9777 35.3871L50.8844 32.7149L48.6454 32.8082L46.4063 32.9014V40.3585V47.8157H48.5832H50.7601L50.9155 44.895L51.071 41.9742L53.4967 44.9571L55.9534 47.971H58.3791C59.7474 47.971 60.9291 47.8468 61.0224 47.6603C61.1157 47.505 59.8407 45.6717 58.1925 43.621C55.487 40.2342 55.2382 39.8303 55.6424 39.3332C55.8912 39.0535 57.2285 37.4999 58.659 35.9153Z" fill="#052C65"/>
<path d="M15.6192 40.3585L12.8515 36.5367L10.1149 32.746H8.00022C6.88069 32.746 5.82336 32.8392 5.73006 32.9635C5.32579 33.3364 5.48128 47.1942 5.88555 47.5982C6.28983 48.0021 9.18195 48.0953 9.77281 47.7225C10.0216 47.5671 10.1771 46.3242 10.2393 44.1182L10.3326 40.7624L12.4161 43.3414C16.179 48.0643 16.0857 48.0021 18.3248 47.9089L20.284 47.8157L20.3772 40.2653L20.4394 32.7149L18.2004 32.8082L15.9302 32.9014L15.7747 36.6299L15.6192 40.3585Z" fill="#052C65"/>
<path d="M44.0429 47.5671C44.2917 47.2253 44.385 45.1125 44.3228 40.0167L44.2295 32.9014L41.9593 32.8082C40.3111 32.746 39.658 32.8392 39.5648 33.1189C39.4715 33.3674 39.4404 36.7542 39.4715 40.6692L39.5648 47.8157L41.6172 47.9089C43.0788 47.971 43.763 47.8778 44.0429 47.5671Z" fill="#052C65"/>
<path d="M67.242 47.8157L67.3353 40.2653L67.3975 32.746H65.0652H62.7328L62.795 40.2653L62.8883 47.8157H65.0652H67.242Z" fill="#052C65"/>
<path d="M74.208 47.5671C74.4568 47.2253 74.5501 45.1125 74.4879 40.0167L74.3946 32.9014L72.1244 32.8082C70.4762 32.746 69.8232 32.8392 69.7299 33.1189C69.6366 33.3674 69.6055 36.7542 69.6366 40.6692L69.7299 47.8157L71.7823 47.9089C73.2439 47.971 73.9281 47.8778 74.208 47.5671Z" fill="#052C65"/>
<path d="M22.7718 56.5468C21.7456 55.4903 19.3821 52.4453 18.8534 51.451C18.3559 50.581 18.2315 50.55 16.2723 50.4878C15.1528 50.4568 14.2198 50.581 14.2198 50.7364C14.2198 50.8918 14.4375 51.4821 14.6863 52.1035C17.3607 58.5043 24.42 64.3768 32.4433 66.8004C34.9933 67.5771 35.6464 67.6393 40.3422 67.6393C45.0069 67.6393 45.7222 67.5771 48.2411 66.8004C51.7552 65.7439 55.9223 63.6 57.8504 61.8911C59.4364 60.4618 59.4364 60.4928 57.6949 58.8771L56.5754 57.8518L55.0516 59.0014C51.3198 61.86 45.349 63.8175 40.28 63.8175C33.936 63.8175 27.0944 60.99 22.7718 56.5468Z" fill="#052C65"/>
<path d="M63.4792 55.9564C64.5676 54.5893 66.2158 51.7618 66.278 51.1714C66.3091 50.7053 65.9981 50.6121 64.2255 50.5189L62.173 50.4257L60.9291 52.0414C60.245 52.9425 59.7474 53.8125 59.8407 53.9989C59.934 54.1853 60.6181 54.9 61.3956 55.5835L62.795 56.8264L63.4792 55.9564Z" fill="#052C65"/>
</svg>
